<mxfile host="app.diagrams.net" agent="Mozilla/5.0 (Windows NT 10.0; Win64; x64) AppleWebKit/537.36 (KHTML, like Gecko) Chrome/129.0.0.0 Safari/537.36" version="24.7.17">
  <diagram id="C5RBs43oDa-KdzZeNtuy" name="Page-1">
    <mxGraphModel dx="1221" dy="-201" grid="1" gridSize="10" guides="1" tooltips="1" connect="1" arrows="1" fold="1" page="1" pageScale="1" pageWidth="1169" pageHeight="827" math="0" shadow="0">
      <root>
        <mxCell id="WIyWlLk6GJQsqaUBKTNV-0" />
        <mxCell id="WIyWlLk6GJQsqaUBKTNV-1" parent="WIyWlLk6GJQsqaUBKTNV-0" />
        <mxCell id="kVWgf0KAfS4bf0OuWOzR-0" value="" style="group" parent="WIyWlLk6GJQsqaUBKTNV-1" vertex="1" connectable="0">
          <mxGeometry x="20" y="860" width="50" height="300" as="geometry" />
        </mxCell>
        <mxCell id="kVWgf0KAfS4bf0OuWOzR-1" value="" style="rounded=0;whiteSpace=wrap;html=1;fillColor=#602826;strokeColor=none;" parent="kVWgf0KAfS4bf0OuWOzR-0" vertex="1">
          <mxGeometry width="50" height="50" as="geometry" />
        </mxCell>
        <mxCell id="kVWgf0KAfS4bf0OuWOzR-2" value="" style="rounded=0;whiteSpace=wrap;html=1;fillColor=#903C3A;strokeColor=none;" parent="kVWgf0KAfS4bf0OuWOzR-0" vertex="1">
          <mxGeometry y="50" width="50" height="50" as="geometry" />
        </mxCell>
        <mxCell id="kVWgf0KAfS4bf0OuWOzR-3" value="" style="rounded=0;whiteSpace=wrap;html=1;fillColor=#C0504D;strokeColor=none;" parent="kVWgf0KAfS4bf0OuWOzR-0" vertex="1">
          <mxGeometry y="100" width="50" height="50" as="geometry" />
        </mxCell>
        <mxCell id="kVWgf0KAfS4bf0OuWOzR-4" value="" style="rounded=0;whiteSpace=wrap;html=1;fillColor=#DD8482;strokeColor=none;" parent="kVWgf0KAfS4bf0OuWOzR-0" vertex="1">
          <mxGeometry y="150" width="50" height="50" as="geometry" />
        </mxCell>
        <mxCell id="kVWgf0KAfS4bf0OuWOzR-5" value="" style="rounded=0;whiteSpace=wrap;html=1;fillColor=#EC9C9B;strokeColor=none;" parent="kVWgf0KAfS4bf0OuWOzR-0" vertex="1">
          <mxGeometry y="200" width="50" height="50" as="geometry" />
        </mxCell>
        <mxCell id="kVWgf0KAfS4bf0OuWOzR-6" value="" style="rounded=0;whiteSpace=wrap;html=1;fillColor=#F4B9B7;strokeColor=none;" parent="kVWgf0KAfS4bf0OuWOzR-0" vertex="1">
          <mxGeometry y="250" width="50" height="50" as="geometry" />
        </mxCell>
        <mxCell id="kVWgf0KAfS4bf0OuWOzR-7" value="&lt;p style=&quot;line-height: 140%;&quot;&gt;&lt;/p&gt;&lt;li style=&quot;font-size: 20px;&quot;&gt;&lt;font style=&quot;font-size: 20px;&quot;&gt;&lt;strong style=&quot;&quot;&gt;Darker 50%&lt;/strong&gt;: &lt;code style=&quot;&quot;&gt;#&lt;font style=&quot;font-size: 20px;&quot; color=&quot;#602826&quot;&gt;602826&lt;/font&gt;&lt;/code&gt;&lt;/font&gt;&lt;/li&gt;&lt;li style=&quot;font-size: 20px;&quot;&gt;&lt;font style=&quot;font-size: 20px;&quot;&gt;&lt;strong&gt;Darker 25%&lt;/strong&gt;: &lt;code&gt;#903C3A&lt;/code&gt;&lt;/font&gt;&lt;/li&gt;&lt;li style=&quot;font-size: 20px;&quot;&gt;&lt;font style=&quot;font-size: 20px;&quot;&gt;&lt;strong&gt;基准色&lt;/strong&gt;:&amp;nbsp; &amp;nbsp; &amp;nbsp; &amp;nbsp; &amp;nbsp;&amp;nbsp;&lt;code&gt;#C0504D&lt;/code&gt;&lt;/font&gt;&lt;/li&gt;&lt;li style=&quot;font-size: 20px;&quot;&gt;&lt;font style=&quot;font-size: 20px;&quot;&gt;&lt;strong&gt;Lighter 40%&lt;/strong&gt;: &lt;code&gt;#DD8482&lt;/code&gt;&lt;/font&gt;&lt;/li&gt;&lt;li style=&quot;font-size: 20px;&quot;&gt;&lt;font style=&quot;font-size: 20px;&quot;&gt;&lt;strong&gt;Lighter 60%&lt;/strong&gt;: &lt;code&gt;#EC9C9B&lt;/code&gt;&lt;/font&gt;&lt;/li&gt;&lt;li style=&quot;font-size: 20px;&quot;&gt;&lt;font style=&quot;font-size: 20px;&quot;&gt;&lt;strong style=&quot;&quot;&gt;Lighter 80%&lt;/strong&gt;: &lt;code style=&quot;&quot;&gt;#F4B9B7&lt;/code&gt;&lt;/font&gt;&lt;/li&gt;&lt;p&gt;&lt;/p&gt;" style="text;whiteSpace=wrap;html=1;movable=1;resizable=1;rotatable=1;deletable=1;editable=1;locked=0;connectable=1;" parent="WIyWlLk6GJQsqaUBKTNV-1" vertex="1">
          <mxGeometry x="80" y="850" width="250" height="160" as="geometry" />
        </mxCell>
        <mxCell id="tciIE7bYEWW8CVFkSiuW-61" value="WP2" parent="WIyWlLk6GJQsqaUBKTNV-0" />
      </root>
    </mxGraphModel>
  </diagram>
</mxfile>
